<?xml version="1.0" encoding="UTF-8"?>
<!DOCTYPE svg PUBLIC "-//W3C//DTD SVG 1.1//EN" "http://www.w3.org/Graphics/SVG/1.1/DTD/svg11.dtd">
<!-- Creator: CorelDRAW 2020 (64-Bit) -->
<svg xmlns="http://www.w3.org/2000/svg" xml:space="preserve" width="1311px" height="813px" version="1.1" style="shape-rendering:geometricPrecision; text-rendering:geometricPrecision; image-rendering:optimizeQuality; fill-rule:evenodd; clip-rule:evenodd"
viewBox="0 0 563.73 349.39"
 xmlns:xlink="http://www.w3.org/1999/xlink"
 xmlns:xodm="http://www.corel.com/coreldraw/odm/2003"
 data-name="Layer 1">
 <defs>
  <style type="text/css">
   <![CDATA[
    .fil1 {fill:#2F2E41;fill-rule:nonzero}
    .fil4 {fill:#3F3D56;fill-rule:nonzero}
    .fil3 {fill:#6C63FF;fill-rule:nonzero}
    .fil2 {fill:#CCCCCC;fill-rule:nonzero}
    .fil8 {fill:#E6E6E6;fill-rule:nonzero}
    .fil6 {fill:#F2F2F2;fill-rule:nonzero}
    .fil0 {fill:#FFB8B8;fill-rule:nonzero}
    .fil7 {fill:white;fill-rule:nonzero}
    .fil5 {fill:black;fill-rule:nonzero;fill-opacity:0.200000}
   ]]>
  </style>
 </defs>
 <g id="Layer_x0020_1">
  <metadata id="CorelCorpID_0Corel-Layer"/>
  <g id="_3193611730112">
   <polygon class="fil0" points="220.49,340.14 210.53,340.14 205.8,301.75 220.49,301.75 "/>
   <path class="fil1" d="M203.42 337.3l19.2 0 0 12.09 -31.29 0 0 0c0,0 0,0 0,0 0,-6.68 5.42,-12.09 12.09,-12.09l0 0z"/>
   <polygon class="fil0" points="118.79,340.14 108.83,340.14 104.1,301.75 118.79,301.75 "/>
   <path class="fil1" d="M101.72 337.3l19.2 0 0 12.09 -31.29 0 0 0c0,0 0,0 0,0 0,-6.68 5.42,-12.09 12.09,-12.09l0 0z"/>
   <path class="fil1" d="M152.04 55.32l0 -4.35c0,-15.51 12.57,-28.08 28.08,-28.08l0 0c15.51,0 28.08,12.57 28.08,28.08l0 4.35c0,11.18 -9.07,20.25 -20.24,20.25l-15.68 0c0,0 0,0 0,0 -11.18,0 -20.24,-9.07 -20.24,-20.25l0 0z"/>
   <circle class="fil0" cx="180.12" cy="55.68" r="21.39"/>
   <path class="fil0" d="M63.79 129.18c1.51,-1.43 3.52,-2.22 5.6,-2.22 2.75,0 5.32,1.38 6.83,3.69l18.34 -3.47 4.82 10.62 -25.96 4.54c-1.23,0.69 -2.62,1.06 -4.04,1.06 -4.53,0 -8.21,-3.68 -8.21,-8.21 0,-2.28 0.95,-4.45 2.62,-6.01l0 0z"/>
   <path class="fil2" d="M163.44 90.54l0.24 0.36 -30.06 19.8 -50.73 16.2c-1.26,0.41 -2.12,1.59 -2.12,2.91 0,0.12 0.01,0.23 0.02,0.35l1.11 9.53c0.18,1.54 1.48,2.7 3.02,2.7 0.22,0 0.43,-0.03 0.64,-0.07l47.75 -10.23c2.31,-0.5 4.49,-1.46 6.42,-2.83l33.77 -24.03c2.29,-1.64 3.65,-4.28 3.65,-7.1 0,-0.23 -0.01,-0.46 -0.03,-0.69 -0.37,-4.51 -4.13,-7.98 -8.65,-7.98 -1.7,0 -3.37,0.51 -4.79,1.44l-0.24 -0.36z"/>
   <path class="fil1" d="M210.71 329.25c0,0 0,0 0,0 -1.56,0 -2.97,-0.93 -3.6,-2.35l-45.64 -112.77c-0.21,-0.48 -0.68,-0.78 -1.2,-0.78 -0.57,0 -1.08,0.37 -1.24,0.92l-37.24 109.78c-0.5,1.64 -2.02,2.77 -3.74,2.77 -0.47,0 -0.94,-0.09 -1.38,-0.25l-12.49 -4.69c-1.38,-0.51 -2.35,-1.76 -2.52,-3.22 -5.61,-48.93 43.37,-172.44 43.86,-173.68l0.14 -0.35 44.65 9.88 0.09 0.1c17.82,19.44 32.46,142.01 35.21,166.38 0.02,0.15 0.03,0.31 0.03,0.46 0,1.65 -1.05,3.13 -2.61,3.68l-11.02 3.9c-0.42,0.14 -0.86,0.22 -1.3,0.22l0 0z"/>
   <path class="fil2" d="M172.24 158.49c-10.82,0 -22.88,-2.16 -26.59,-11.06l-0.09 -0.21 0.12 -0.19c2.93,-4.8 6.8,-13.01 4.72,-14.55 -4.1,-3.03 -6.09,-8.02 -5.91,-14.82 0.38,-14.77 10.45,-27.89 25.04,-32.64l0 0c4.07,-1.3 8.24,-2.39 12.43,-3.2 1.37,-0.27 2.77,-0.42 4.18,-0.42 4.86,0 9.58,1.68 13.35,4.75 4.96,4.02 7.87,10.05 7.92,16.43 0.15,15.79 -2.28,37.78 -14.73,52.88 -0.58,0.7 -1.4,1.17 -2.29,1.33 -5.98,1.08 -12.07,1.66 -18.15,1.7l0 0z"/>
   <path class="fil0" d="M168.22 157.9c1,-3.6 4.28,-6.09 8.01,-6.09 0.73,0 1.45,0.09 2.15,0.28 0.44,0.12 0.86,0.28 1.27,0.47l13.92 -12.67 9.68 6.52 -19.91 17.62c-1.46,2.64 -4.25,4.28 -7.26,4.28 -0.73,0 -1.46,-0.1 -2.16,-0.29 -3.55,-0.97 -6.02,-4.2 -6.02,-7.89 0,-0.75 0.11,-1.51 0.32,-2.23l0 0z"/>
   <path class="fil2" d="M191.36 158.06c0,0 0,0 0,0 -0.9,0 -1.78,-0.32 -2.48,-0.89l-5.49 -4.48c-0.91,-0.75 -1.44,-1.86 -1.44,-3.04 0,-1.22 0.57,-2.37 1.54,-3.11l23.02 -17.66c0.32,-0.24 0.51,-0.63 0.51,-1.03 0,-0.29 -0.09,-0.56 -0.26,-0.79l-14.21 -18.79c-1.53,-2.01 -2.35,-4.47 -2.35,-6.99 0,-2.94 1.11,-5.77 3.12,-7.91l0 0c2.18,-2.36 5.25,-3.7 8.47,-3.7 2.57,0 5.08,0.86 7.11,2.45l0.09 0.1 14.84 21.25c3.19,2.5 5.06,6.34 5.06,10.41 0,4.2 -1.99,8.16 -5.38,10.65l-29.82 22.76c-0.67,0.5 -1.49,0.77 -2.33,0.77 0,0 0,0 0,0z"/>
   <path class="fil1" d="M161.17 49.66l0 -10.61 18.95 -8.27 18.06 8.27 0 10.61c0,0.97 -0.78,1.75 -1.74,1.75l-33.52 0c-0.97,0 -1.75,-0.78 -1.75,-1.75z"/>
   <path class="fil1" d="M179.25 24.29c-2.79,-8.91 3.06,-19.13 11.71,-22.66 8.65,-3.53 19,-1.06 26.29,4.77 7.3,5.83 11.83,14.56 14.23,23.59 2.4,9.03 2.85,18.44 3.29,27.77 10.63,1.95 17.86,14.56 14.18,24.71 -3.68,10.16 -17.31,15.21 -26.72,9.9 -9.41,-5.31 -12.13,-19.58 -5.34,-27.98 3.3,-4.09 5.1,-9.19 5.1,-14.44 0,-12.68 -10.28,-22.97 -22.96,-22.97 -3.04,0 -6.06,0.61 -8.86,1.78 -5.24,2.19 -11.81,-3.5 -10.92,-4.47z"/>
   <g>
    <path class="fil3" d="M59.86 88.02c-12.72,-0.07 -25.3,-2.85 -36.88,-8.08 -1.4,-0.62 -2.31,-2.02 -2.31,-3.55 0,-0.01 0,-0.01 0,-0.02l0 -31.71c0.01,-2.16 1.76,-3.92 3.92,-3.92l70.54 0c2.16,0 3.91,1.76 3.91,3.92l0 31.71c0,0.01 0,0.01 0,0.02 0,1.53 -0.9,2.93 -2.31,3.55l0 0c-11.57,5.23 -24.15,8.01 -36.87,8.08l0 0z"/>
    <path class="fil3" d="M59.85 62.33c0,0 0,0 0,0 -0.53,0 -1.04,-0.1 -1.52,-0.31l-55.94 -23.59c-1.45,-0.62 -2.39,-2.04 -2.39,-3.61 0,-1.63 1.01,-3.09 2.53,-3.67l55.93 -21.22c0.44,-0.16 0.92,-0.25 1.39,-0.25 0.48,0 0.96,0.09 1.41,0.26l55.18 21.22c1.51,0.58 2.51,2.04 2.51,3.66 0,1.57 -0.93,2.98 -2.38,3.6l-55.18 23.6c-0.49,0.2 -1.01,0.31 -1.54,0.31 0,0 0,0 0,0l0 0z"/>
    <circle class="fil4" cx="27.2" cy="76.88" r="5.22"/>
    <path class="fil5" d="M116.76 35.07l-55.18 23.6c-0.43,0.18 -0.9,0.28 -1.37,0.28 -0.46,0 -0.92,-0.1 -1.35,-0.28l-55.93 -23.59c-0.71,-0.29 -1.29,-0.81 -1.67,-1.47 -0.3,0.53 -0.46,1.13 -0.46,1.74 0,1.4 0.84,2.67 2.13,3.21l55.93 23.6c0.43,0.18 0.89,0.27 1.35,0.27 0.47,0 0.94,-0.09 1.37,-0.28l55.18 -23.6c1.29,-0.54 2.12,-1.8 2.12,-3.2 0,-0.61 -0.16,-1.21 -0.47,-1.74 -0.37,0.66 -0.95,1.17 -1.65,1.46l0 0z"/>
    <path class="fil4" d="M27.64 76.86c0.49,0 0.87,-0.39 0.87,-0.87l0 -29.14 28.72 -10.46c0.01,0 0.01,0 0.02,0 0.48,0 0.87,-0.39 0.87,-0.87 0,-0.48 -0.38,-0.87 -0.86,-0.87l-28.72 10.46c-0.01,0 -0.03,0 -0.04,0 -0.45,0 -0.89,0.18 -1.21,0.5 -0.33,0.32 -0.52,0.77 -0.52,1.23 0,0.01 0,0.01 0,0.01l0 29.14c0,0.48 0.39,0.87 0.87,0.87l0 0z"/>
   </g>
  </g>
  <g id="_3193611733952">
   <path class="fil6" d="M513.72 243.83l0 93.65 -234.62 0c-26.73,0 -48.48,-21.01 -48.48,-46.83 0,-25.81 21.75,-46.82 48.48,-46.82l234.62 0z"/>
   <path class="fil3" d="M519.48 336.75c0,1.99 -1.61,3.61 -3.6,3.61l-240.95 0c-27.25,0 -49.35,-22.1 -49.35,-49.35 0,-27.24 22.1,-49.34 49.35,-49.34l240.95 0c1.99,0 3.6,1.61 3.6,3.6 0,1.99 -1.61,3.6 -3.6,3.6l-240.95 0c-23.27,0 -42.14,18.87 -42.14,42.14 0,23.27 18.87,42.14 42.14,42.14l240.95 0c1.99,0 3.6,1.62 3.6,3.6l0 0z"/>
   <path class="fil2" d="M513.72 265.44l-252.12 0c-0.4,0 -0.72,-0.32 -0.72,-0.72 0,-0.4 0.32,-0.72 0.72,-0.72l252.12 0c0.39,0 0.72,0.32 0.72,0.72 0,0.4 -0.33,0.72 -0.72,0.72l0 0z"/>
   <path class="fil2" d="M513.72 282.73l-252.12 0c-0.4,0 -0.72,-0.32 -0.72,-0.72 0,-0.4 0.32,-0.72 0.72,-0.72l252.12 0c0.39,0 0.72,0.32 0.72,0.72 0,0.4 -0.33,0.72 -0.72,0.72l0 0z"/>
   <path class="fil2" d="M513.72 300.02l-252.12 0c-0.4,0 -0.72,-0.33 -0.72,-0.72 0,-0.4 0.32,-0.72 0.72,-0.72l252.12 0c0.39,0 0.72,0.32 0.72,0.72 0,0.39 -0.33,0.72 -0.72,0.72l0 0z"/>
   <path class="fil2" d="M513.72 317.31l-252.12 0c-0.4,0 -0.72,-0.33 -0.72,-0.72 0,-0.4 0.32,-0.73 0.72,-0.73l252.12 0c0.39,0 0.72,0.33 0.72,0.73 0,0.39 -0.33,0.72 -0.72,0.72l0 0z"/>
  </g>
  <g id="_3193611738608">
   <path class="fil7" d="M296.11 208.56l-91.35 0c-1.58,0 -2.86,-1.29 -2.87,-2.87l0 -69.36c0.01,-1.59 1.29,-2.87 2.87,-2.87l112.13 0c1.58,0 2.87,1.28 2.87,2.87l0 48.58c-0.01,13.05 -10.6,23.64 -23.65,23.65l0 0z"/>
   <path class="fil2" d="M296.11 208.82l-91.35 0c-1.73,0 -3.12,-1.4 -3.13,-3.13l0 -69.36c0.01,-1.73 1.4,-3.13 3.13,-3.13l112.13 0c1.73,0 3.13,1.4 3.13,3.13l0 48.58c-0.01,13.2 -10.71,23.9 -23.91,23.91l0 0zm-91.35 -74.58c-1.15,0 -2.09,0.93 -2.09,2.09l0 69.36c0,1.15 0.94,2.09 2.09,2.09l91.35 0c12.62,-0.01 22.86,-10.25 22.87,-22.87l0 -48.58c0,-1.16 -0.94,-2.09 -2.09,-2.09l-112.13 0z"/>
   <path class="fil2" d="M294.73 156.88l-67.8 0c-1.3,0 -2.35,-1.05 -2.35,-2.34 0,-1.3 1.05,-2.35 2.35,-2.35l67.8 0c1.29,0 2.34,1.05 2.34,2.35 0,1.29 -1.05,2.34 -2.34,2.34l0 0z"/>
   <path class="fil2" d="M294.73 173.05l-67.8 0c-1.3,0 -2.35,-1.05 -2.35,-2.35 0,-1.29 1.05,-2.34 2.35,-2.34l67.8 0c1.29,0 2.34,1.05 2.34,2.34 0,1.3 -1.05,2.35 -2.34,2.35l0 0z"/>
   <path class="fil2" d="M294.73 189.68l-67.8 0c-1.3,0 -2.35,-1.05 -2.35,-2.35 0,-1.29 1.05,-2.34 2.35,-2.34l67.8 0c1.29,0 2.34,1.05 2.34,2.34 0,1.3 -1.05,2.35 -2.34,2.35l0 0z"/>
   <circle class="fil3" cx="316.05" cy="136.53" r="14.01"/>
   <path class="fil7" d="M314.14 143.82c0,0 0,0 0,0 -0.49,0 -0.96,-0.23 -1.25,-0.62l-3.82 -5.1c-0.21,-0.27 -0.32,-0.6 -0.32,-0.94 0,-0.86 0.7,-1.56 1.56,-1.56 0.49,0 0.96,0.24 1.25,0.63l2.5 3.33 6.43 -9.63c0.29,-0.44 0.77,-0.7 1.29,-0.7 0.86,0 1.56,0.7 1.56,1.56 0,0.31 -0.09,0.61 -0.26,0.86l-7.65 11.48c-0.28,0.42 -0.74,0.68 -1.25,0.69 -0.01,0 -0.03,0 -0.04,0z"/>
   <path class="fil7" d="M262.39 268.8l-91.35 0c-13.05,-0.01 -23.63,-10.59 -23.64,-23.64l0 -48.59c0,-1.58 1.28,-2.86 2.87,-2.87l112.12 0c1.59,0.01 2.87,1.29 2.87,2.87l0 69.37c0,1.58 -1.28,2.86 -2.86,2.86l-0.01 0z"/>
   <path class="fil2" d="M262.39 269.06l-91.35 0c-13.19,-0.01 -23.89,-10.71 -23.9,-23.9l0 -48.59c0,-1.72 1.4,-3.12 3.13,-3.13l112.12 0c1.73,0.01 3.13,1.41 3.13,3.13l0 69.37c0,1.72 -1.4,3.12 -3.13,3.12l0 0zm-112.12 -74.58c-1.16,0.01 -2.09,0.94 -2.09,2.09l0 48.59c0.01,12.62 10.24,22.85 22.86,22.86l91.35 0c1.16,0 2.09,-0.93 2.09,-2.08l0 -69.37c0,-1.15 -0.93,-2.08 -2.09,-2.09l-112.12 0z"/>
   <path class="fil2" d="M240.23 217.13l-67.8 0c-1.29,0 -2.35,-1.05 -2.35,-2.35 0,-1.29 1.06,-2.34 2.35,-2.34l67.8 0c1.3,0 2.35,1.05 2.35,2.34 0,1.3 -1.05,2.35 -2.35,2.35l0 0z"/>
   <path class="fil2" d="M240.23 233.3l-67.8 0c-1.29,0 -2.35,-1.05 -2.35,-2.35 0,-1.3 1.06,-2.35 2.35,-2.35l67.8 0c1.3,0 2.35,1.05 2.35,2.35 0,1.3 -1.05,2.35 -2.35,2.35l0 0z"/>
   <path class="fil2" d="M240.23 249.93l-67.8 0c-1.29,0 -2.35,-1.05 -2.35,-2.35 0,-1.3 1.06,-2.35 2.35,-2.35l67.8 0c1.3,0 2.35,1.05 2.35,2.35 0,1.3 -1.05,2.35 -2.35,2.35l0 0z"/>
   <circle class="fil3" cx="262.52" cy="197.33" r="14.01"/>
   <path class="fil7" d="M260.61 204.62c0,0 0,0 0,0 -0.49,0 -0.95,-0.23 -1.25,-0.62l-3.82 -5.1c-0.2,-0.27 -0.31,-0.6 -0.31,-0.94 0,-0.86 0.7,-1.55 1.56,-1.55 0.49,0 0.95,0.23 1.24,0.62l2.51 3.33 6.42 -9.63c0.29,-0.44 0.78,-0.7 1.3,-0.7 0.86,0 1.56,0.7 1.56,1.56 0,0.31 -0.1,0.61 -0.27,0.87l-7.64 11.47c-0.28,0.42 -0.75,0.68 -1.26,0.69 -0.01,0 -0.03,0 -0.04,0z"/>
   <path class="fil7" d="M376.22 333.46l-127.82 0c-13.06,-0.01 -23.64,-10.6 -23.65,-23.65l0 -71.46c0,-2.04 1.66,-3.69 3.7,-3.7l147.77 0c2.04,0.01 3.69,1.66 3.69,3.7l0 91.41c0,2.04 -1.65,3.7 -3.69,3.7l0 0z"/>
   <path class="fil2" d="M376.22 333.72l-127.82 0c-13.2,-0.01 -23.9,-10.71 -23.91,-23.91l0 -71.46c0,-2.18 1.77,-3.95 3.96,-3.96l147.77 0c2.18,0.01 3.95,1.78 3.95,3.96l0 91.41c0,2.18 -1.77,3.95 -3.95,3.96l0 0zm-147.77 -98.29c-1.61,0.01 -2.92,1.31 -2.92,2.92l0 71.46c0.01,12.62 10.24,22.86 22.87,22.87l127.82 0c1.61,0 2.91,-1.31 2.91,-2.92l0 -91.41c0,-1.61 -1.3,-2.91 -2.91,-2.92l-147.77 0z"/>
   <path class="fil2" d="M347.01 265.44l-89.35 0c0,0 -0.01,0 -0.01,0 -1.71,0 -3.09,-1.38 -3.09,-3.09 0,-1.71 1.38,-3.09 3.09,-3.09 0,0 0.01,0 0.01,0l89.35 0c0,0 0,0 0,0 1.71,0 3.09,1.38 3.09,3.09 0,1.71 -1.38,3.09 -3.09,3.09 0,0 0,0 0,0z"/>
   <path class="fil2" d="M347.01 286.75l-89.35 0c0,0 -0.01,0 -0.01,0 -1.71,0 -3.09,-1.39 -3.09,-3.09 0,-1.71 1.38,-3.1 3.09,-3.1 0,0 0.01,0 0.01,0l89.35 0c1.7,0 3.09,1.39 3.09,3.1 0,1.7 -1.39,3.09 -3.09,3.09l0 0z"/>
   <path class="fil2" d="M347.01 308.66l-89.35 0c-1.71,0 -3.1,-1.38 -3.1,-3.09 0,-1.71 1.39,-3.09 3.1,-3.09l89.35 0c0,0 0,0 0,0 1.71,0 3.09,1.38 3.09,3.09 0,1.71 -1.38,3.09 -3.09,3.09 0,0 0,0 0,0l0 0z"/>
   <g>
    <circle class="fil3" cx="362.38" cy="242.92" r="17.74"/>
    <path class="fil7" d="M359.96 252.15c0,0 0,0 0,0 -0.62,0 -1.21,-0.29 -1.58,-0.78l-4.84 -6.46c-0.26,-0.34 -0.39,-0.76 -0.39,-1.18 0,-1.09 0.88,-1.98 1.97,-1.98 0.62,0 1.21,0.3 1.58,0.79l3.16 4.23 8.14 -12.2c0.36,-0.55 0.98,-0.88 1.64,-0.88 1.09,0 1.97,0.88 1.97,1.97 0,0.39 -0.11,0.77 -0.33,1.1l-9.68 14.52c-0.35,0.53 -0.95,0.86 -1.59,0.87 -0.01,0 -0.03,0 -0.05,0z"/>
   </g>
  </g>
  <g id="_3193611742544">
   <path class="fil0" d="M291.41 167.46c2.43,4.05 6.8,6.53 11.52,6.53 3.23,0 6.37,-1.17 8.81,-3.3l41.36 23.73 -1.54 -24.73 -39.05 -18.74c-2.53,-2.55 -5.97,-3.98 -9.57,-3.98 -7.44,0 -13.49,6.04 -13.49,13.49 0,2.47 0.68,4.89 1.97,7l-0.01 0z"/>
   <path class="fil1" d="M411.17 262.5c-12.27,17.18 -11.83,45.91 -8.41,77.35l58.01 0 2.53 -5.88 3.36 5.88 54.65 0c0,0 -4.2,-79.87 -11.77,-82.39 -7.57,-2.53 -98.37,5.04 -98.37,5.04z"/>
   <circle class="fil0" cx="460.77" cy="53.65" r="29.43"/>
   <path class="fil4" d="M482.04 90.71l5.76 11.03 39.8 17.74 -10.46 101.25 -4.41 10.49 2.38 9.1 -5.73 6.72c5.76,5.21 6.49,10.67 3.35,16.31l-18.32 4.2c0,0 -101.92,9.06 -93.33,-6.73 9.38,-17.25 11.77,-68.2 -8.94,-95.42 -17.59,-23.12 -4.09,-53.11 -4.09,-53.11l41.72 -12.47 15.35 -9.11 36.92 0z"/>
   <path class="fil1" d="M473.84 10.54c0.27,-0.57 0.84,-0.93 1.47,-0.93 0.03,0 0.06,0 0.09,0 -13.47,-0.8 -27.66,0.77 -38.93,8.19 -2.73,1.8 -5.31,3.95 -8.28,5.25 -0.32,0.15 -0.53,0.46 -0.53,0.82 0,0.27 0.13,0.53 0.35,0.7l0.33 0.25c0.21,0.17 0.34,0.43 0.34,0.71 0,0.39 -0.26,0.74 -0.64,0.85l0 0c-0.37,0.12 -0.63,0.47 -0.63,0.86 0,0.3 0.15,0.59 0.41,0.75l2.5 1.62c0.26,0.16 0.41,0.45 0.41,0.75 0,0.3 -0.15,0.58 -0.4,0.75 -0.21,0.13 -0.44,0.24 -0.67,0.34 -0.34,0.13 -0.58,0.46 -0.58,0.83 0,0.25 0.11,0.5 0.3,0.67 1.08,0.96 1.91,2.17 2.42,3.53 0.83,2.17 0.98,4.53 1.12,6.85 0.87,-3.35 4.52,-5.31 7.96,-5.51 3.45,-0.2 6.81,0.93 10.17,1.75 4.34,1.05 8.81,1.59 13.28,1.59 3.03,0 6.06,-0.25 9.04,-0.73 -2.52,5.05 -0.39,11.09 1.75,16.32l6.92 -2.97c9.52,-5.37 2.89,17.35 -0.67,20.46 7.26,2.52 26.27,-25.42 20.16,-36.02 -3.18,-5.51 -0.93,-12.62 -7.18,-17.85 -3.06,-3.23 -9.18,-1.79 -12.31,-4.47 -1.23,-1.06 0.65,-3.88 -1.04,-4.5 -0.56,-0.2 -7.07,-1.06 -7.16,-0.86z"/>
   <path class="fil4" d="M423.99 102.67c-5.4,23.97 -19.25,79.95 -33.3,91.65 -0.89,0.84 -1.96,1.47 -3.12,1.85 -49.39,12.03 -65.22,-18.66 -65.22,-18.66 0,0 13.24,-6.45 13.57,-19.06l26.7 8.28 23.26 -52.36 3.43 -3.19 0.02 -0.02 34.66 -8.49z"/>
   <path class="fil0" d="M529.3 324.05c2.63,-2.53 4.12,-6.03 4.12,-9.68 0,-4.29 -2.06,-8.33 -5.53,-10.85l13.85 -45.63 -23.76 7.05 -9.51 42.25c-1.35,2.15 -2.07,4.65 -2.07,7.19 0,7.45 6.04,13.49 13.49,13.49 3.51,0 6.89,-1.37 9.41,-3.82l0 0z"/>
   <path class="fil4" d="M516.63 116.93l10.97 2.55c0,0 45.36,88.25 34.43,105.07 -10.93,16.81 -24.32,72.49 -24.32,72.49 0,0 -19.81,-3.94 -27.37,-14.03l13.85 -66.03 -14.29 -55.49 6.73 -44.56z"/>
   <path class="fil8" d="M308.43 247.98l0.4 -142.13c0.02,-5.99 4.88,-10.82 10.86,-10.82 0.01,0 0.01,0 0.02,0l107.34 0.29c5.98,0.03 10.82,4.88 10.82,10.87 0,0 0,0.01 0,0.01l-0.39 142.14c-0.02,5.98 -4.88,10.82 -10.86,10.82 -0.01,0 -0.02,0 -0.02,0l-107.34 -0.3c-5.99,-0.02 -10.82,-4.88 -10.82,-10.86 0,-0.01 0,-0.02 0,-0.02l-0.01 0z"/>
   <path class="fil7" d="M316.79 205.07l0.25 -91.37c0.02,-5.61 4.57,-10.14 10.17,-10.14 0.01,0 0.02,0 0.02,0l92.25 0.26c5.61,0.02 10.14,4.57 10.14,10.17 0,0.01 0,0.01 0,0.02l-0.35 126.48c-0.02,5.6 -4.57,10.13 -10.18,10.13 0,0 -0.01,0 -0.01,0l-57.15 -0.16c-24.96,-0.09 -45.14,-20.36 -45.14,-45.31 0,-0.03 0,-0.05 0,-0.08l0 0z"/>
   <path class="fil3" d="M408.91 143.7l-71.93 0c-2.38,0 -4.32,-1.93 -4.32,-4.32 0,-2.38 1.94,-4.31 4.32,-4.31l71.93 0c2.39,0 4.32,1.93 4.32,4.31 0,2.39 -1.93,4.32 -4.32,4.32z"/>
   <path class="fil3" d="M352.8 123.8l-15.82 0c-2.38,0 -4.32,-1.93 -4.32,-4.32 0,-2.38 1.94,-4.31 4.32,-4.31l15.82 0c2.39,0 4.32,1.93 4.32,4.31 0,2.39 -1.93,4.32 -4.32,4.32l0 0z"/>
   <path class="fil3" d="M408.91 163.6l-71.93 0c-2.38,0 -4.32,-1.93 -4.32,-4.31 0,-2.39 1.94,-4.32 4.32,-4.32l71.93 0c2.39,0 4.32,1.93 4.32,4.32 0,2.38 -1.93,4.31 -4.32,4.31z"/>
   <path class="fil3" d="M408.91 183.5l-71.93 0c-2.38,0 -4.32,-1.93 -4.32,-4.31 0,-2.39 1.94,-4.32 4.32,-4.32l71.93 0c2.39,0 4.32,1.93 4.32,4.32 0,2.38 -1.93,4.31 -4.32,4.31l0 0z"/>
   <circle class="fil3" cx="403.09" cy="218.77" r="17.17"/>
   <path class="fil7" d="M400.75 227.71c0,0 0,0 0,0 -0.6,0 -1.17,-0.29 -1.53,-0.77l-4.68 -6.25c-0.25,-0.33 -0.39,-0.73 -0.39,-1.14 0,-1.06 0.86,-1.91 1.91,-1.91 0.6,0 1.17,0.28 1.53,0.76l3.07 4.09 7.87 -11.81c0.35,-0.53 0.95,-0.85 1.59,-0.85 1.06,0 1.91,0.85 1.91,1.91 0,0.37 -0.11,0.75 -0.32,1.06l-9.37 14.06c-0.35,0.51 -0.92,0.83 -1.54,0.85 -0.02,0 -0.03,0 -0.05,0z"/>
   <circle class="fil6" cx="366.47" cy="53.78" r="8.15"/>
   <circle class="fil6" cx="336.74" cy="288.28" r="8.15"/>
   <circle class="fil6" cx="524.24" cy="85.43" r="8.15"/>
  </g>
 </g>
</svg>
