<?xml version="1.0" encoding="UTF-8"?>
<!DOCTYPE svg PUBLIC "-//W3C//DTD SVG 1.1//EN" "http://www.w3.org/Graphics/SVG/1.1/DTD/svg11.dtd">
<!-- Creator: CorelDRAW 2020 (64-Bit) -->
<svg xmlns="http://www.w3.org/2000/svg" xml:space="preserve" width="1311px" height="813px" version="1.1" style="shape-rendering:geometricPrecision; text-rendering:geometricPrecision; image-rendering:optimizeQuality; fill-rule:evenodd; clip-rule:evenodd"
viewBox="0 0 1468.67 910.25"
 xmlns:xlink="http://www.w3.org/1999/xlink"
 xmlns:xodm="http://www.corel.com/coreldraw/odm/2003"
 data-name="Layer 1">
 <defs>
  <style type="text/css">
   <![CDATA[
    .fil1 {fill:#2F2E41;fill-rule:nonzero}
    .fil4 {fill:#3F3D56;fill-rule:nonzero}
    .fil3 {fill:#6C63FF;fill-rule:nonzero}
    .fil2 {fill:#CCCCCC;fill-rule:nonzero}
    .fil8 {fill:#E6E6E6;fill-rule:nonzero}
    .fil6 {fill:#F2F2F2;fill-rule:nonzero}
    .fil0 {fill:#FFB8B8;fill-rule:nonzero}
    .fil7 {fill:white;fill-rule:nonzero}
    .fil5 {fill:black;fill-rule:nonzero;fill-opacity:0.200000}
   ]]>
  </style>
 </defs>
 <g id="Layer_x0020_1">
  <metadata id="CorelCorpID_0Corel-Layer"/>
  <g id="_3193443279232">
   <polygon class="fil0" points="574.43,886.17 548.5,886.17 536.16,786.13 574.44,786.14 "/>
   <path class="fil1" d="M529.97 878.76l50.02 0 0 31.49 -81.51 0 0 0c0,0 0,0 0,0 0,-17.39 14.1,-31.49 31.49,-31.49l0 0z"/>
   <polygon class="fil0" points="309.47,886.17 283.54,886.17 271.2,786.13 309.48,786.14 "/>
   <path class="fil1" d="M265.01 878.76l50.02 0 0 31.49 -81.51 0 0 0c0,0 0,0 0,0 0,-17.39 14.1,-31.49 31.49,-31.49l0 0z"/>
   <path class="fil1" d="M396.1 144.13l0 -11.34c0,-40.4 32.76,-73.16 73.16,-73.16l0 0c40.4,0 73.16,32.76 73.16,73.16l0 11.34c0,29.13 -23.62,52.75 -52.74,52.75l-40.84 0c0,0 0,0 0,0 -29.12,0 -52.74,-23.62 -52.74,-52.75l0 0z"/>
   <circle class="fil0" cx="469.26" cy="145.06" r="55.72"/>
   <path class="fil0" d="M166.18 336.56c3.95,-3.72 9.18,-5.8 14.61,-5.8 7.17,0 13.86,3.61 17.79,9.61l47.76 -9.04 12.57 27.69 -67.63 11.81c-3.21,1.81 -6.83,2.77 -10.51,2.77 -11.82,0 -21.39,-9.58 -21.39,-21.39 0,-5.93 2.46,-11.6 6.8,-15.65l0 0z"/>
   <path class="fil2" d="M425.82 235.87l0.63 0.95 -78.33 51.6 -132.17 42.2c-3.29,1.06 -5.52,4.12 -5.52,7.58 0,0.3 0.02,0.6 0.05,0.9l2.89 24.84c0.46,4 3.85,7.02 7.88,7.02 0.56,0 1.12,-0.06 1.67,-0.18l124.38 -26.66c6.02,-1.28 11.72,-3.79 16.73,-7.36l87.99 -62.61c5.97,-4.26 9.51,-11.15 9.51,-18.49 0,-0.6 -0.03,-1.21 -0.07,-1.81 -0.97,-11.73 -10.78,-20.77 -22.56,-20.77 -4.42,0 -8.76,1.31 -12.46,3.74l-0.62 -0.95z"/>
   <path class="fil1" d="M548.96 857.78c0,0 0,0 0,0 -4.07,0 -7.75,-2.4 -9.38,-6.12l-118.9 -293.79c-0.54,-1.24 -1.77,-2.04 -3.12,-2.04 -1.5,0 -2.82,0.97 -3.25,2.4l-97.01 286.01c-1.31,4.28 -5.27,7.21 -9.76,7.21 -1.22,0 -2.44,-0.22 -3.58,-0.65l-32.53 -12.2c-3.6,-1.34 -6.14,-4.59 -6.57,-8.4 -14.63,-127.48 112.98,-449.26 114.27,-452.49l0.36 -0.9 116.32 25.74 0.24 0.26c46.42,50.63 84.56,369.97 91.74,433.47 0.05,0.39 0.07,0.79 0.07,1.18 0,4.32 -2.73,8.17 -6.81,9.59l-28.71 10.16c-1.08,0.38 -2.23,0.57 -3.38,0.57l0 0z"/>
   <path class="fil2" d="M448.73 412.9c-28.18,0 -59.6,-5.62 -69.27,-28.81l-0.23 -0.53 0.3 -0.5c7.64,-12.52 17.73,-33.89 12.3,-37.9 -10.68,-7.9 -15.86,-20.9 -15.4,-38.63 1,-38.48 27.22,-72.66 65.26,-85.03l0 0c10.59,-3.38 21.44,-6.21 32.36,-8.33 3.58,-0.72 7.23,-1.09 10.89,-1.09 12.67,0 24.95,4.37 34.78,12.37 12.92,10.46 20.5,26.17 20.63,42.81 0.4,41.13 -5.93,98.42 -38.36,137.75 -1.53,1.82 -3.64,3.06 -5.98,3.47 -15.57,2.81 -31.44,4.33 -47.29,4.43l0.01 -0.01z"/>
   <path class="fil0" d="M438.25 411.36c2.61,-9.37 11.15,-15.85 20.88,-15.85 1.89,0 3.79,0.24 5.61,0.73 1.13,0.32 2.23,0.73 3.29,1.22l36.27 -33.01 25.22 17 -51.87 45.89c-3.81,6.88 -11.06,11.15 -18.92,11.15 -1.89,0 -3.78,-0.25 -5.61,-0.74 -9.26,-2.54 -15.68,-10.95 -15.68,-20.56 0,-1.97 0.27,-3.93 0.81,-5.83l0 0z"/>
   <path class="fil2" d="M498.55 411.78c0,0 0,0 -0.01,0 -2.35,0 -4.63,-0.81 -6.45,-2.3l-14.3 -11.69c-2.37,-1.94 -3.75,-4.84 -3.75,-7.9 0,-3.18 1.48,-6.17 4,-8.1l59.99 -46.01c0.83,-0.65 1.33,-1.65 1.33,-2.7 0,-0.74 -0.25,-1.46 -0.69,-2.05l-37.03 -48.95c-3.97,-5.24 -6.13,-11.64 -6.13,-18.22 0,-7.66 2.91,-15.02 8.15,-20.61l0 0c5.68,-6.14 13.68,-9.63 22.05,-9.63 6.72,0 13.24,2.25 18.53,6.38l0.23 0.25 38.66 55.36c8.33,6.53 13.2,16.54 13.2,27.13 0,10.95 -5.2,21.25 -14.01,27.74l-77.69 59.3c-1.76,1.3 -3.89,2 -6.08,2 0,0 0,0 0,0z"/>
   <path class="fil1" d="M419.91 129.39l0 -27.65 49.35 -21.55 47.06 21.55 0 27.65c0,2.5 -2.03,4.54 -4.54,4.54l-87.34 0c-2.5,0 -4.53,-2.04 -4.53,-4.54z"/>
   <path class="fil1" d="M466.99 63.29c-7.25,-23.22 7.99,-49.84 30.52,-59.04 22.53,-9.19 49.49,-2.76 68.5,12.43 19.01,15.19 30.8,37.94 37.05,61.46 6.26,23.51 7.44,48.04 8.59,72.35 27.69,5.08 46.52,37.91 36.93,64.37 -9.59,26.47 -45.09,39.61 -69.6,25.78 -24.51,-13.83 -31.61,-51.01 -13.92,-72.9 8.6,-10.63 13.3,-23.92 13.3,-37.61 0,-33.03 -26.8,-59.83 -59.83,-59.83 -7.93,0 -15.77,1.58 -23.09,4.63 -13.64,5.71 -30.76,-9.11 -28.45,-11.64z"/>
   <g>
    <path class="fil3" d="M155.95 229.32c-33.13,-0.2 -65.91,-7.43 -96.08,-21.05 -3.65,-1.62 -6.01,-5.25 -6.01,-9.26 0,-0.01 0,-0.03 0,-0.04l0 -82.62c0.01,-5.63 4.58,-10.2 10.21,-10.21l183.76 0c5.63,0.01 10.2,4.58 10.21,10.21l0 82.62c0,0.01 0,0.03 0,0.04 0,4.01 -2.36,7.64 -6.02,9.27l0 0c-30.16,13.61 -62.94,20.84 -96.06,21.04l-0.01 0z"/>
    <path class="fil3" d="M155.92 162.39c0,0 0,0 0,0 -1.36,0 -2.71,-0.27 -3.96,-0.8l-145.72 -61.48c-3.78,-1.59 -6.24,-5.3 -6.24,-9.4 0,-4.24 2.62,-8.04 6.59,-9.55l145.72 -55.28c1.15,-0.44 2.38,-0.66 3.62,-0.66 1.25,0 2.49,0.23 3.66,0.68l143.77 55.28c3.94,1.51 6.54,5.3 6.54,9.53 0,4.09 -2.43,7.78 -6.19,9.38l-143.77 61.48c-1.27,0.54 -2.63,0.82 -4.01,0.82 0,0 0,0 -0.01,0l0 0z"/>
    <circle class="fil4" cx="70.88" cy="200.29" r="13.61"/>
    <path class="fil5" d="M304.21 91.37l-143.77 61.48c-1.13,0.48 -2.35,0.73 -3.57,0.73 -1.21,0 -2.41,-0.25 -3.53,-0.72l-145.72 -61.47c-1.82,-0.76 -3.35,-2.1 -4.34,-3.82 -0.79,1.38 -1.21,2.94 -1.21,4.53 0,3.65 2.19,6.95 5.55,8.36l145.72 61.48c1.12,0.47 2.32,0.71 3.53,0.71 1.22,0 2.44,-0.25 3.56,-0.73l143.78 -61.48c3.33,-1.42 5.51,-4.71 5.51,-8.34 0,-1.59 -0.42,-3.15 -1.22,-4.53 -0.97,1.71 -2.48,3.04 -4.29,3.8l0 0z"/>
    <path class="fil4" d="M72.02 200.24c1.25,0 2.27,-1.02 2.27,-2.27l0 -75.92 74.82 -27.25c0.01,0 0.02,0 0.03,0 1.26,0 2.27,-1.02 2.27,-2.27 0,-1.24 -0.99,-2.25 -2.23,-2.27l-74.82 27.26c-0.04,0 -0.07,0 -0.11,0 -1.18,0 -2.31,0.47 -3.14,1.3 -0.87,0.85 -1.36,2.01 -1.36,3.22 0,0.01 0,0.01 0,0.02l0 75.91c0,1.25 1.02,2.27 2.27,2.27l0 0z"/>
   </g>
  </g>
  <g id="_3193443271984">
   <path class="fil6" d="M1338.38 635.25l0 243.97 -611.23 0c-69.65,0 -126.31,-54.72 -126.31,-121.98 0,-67.26 56.66,-121.99 126.31,-121.99l611.23 0z"/>
   <path class="fil3" d="M1353.39 877.34c0,5.18 -4.2,9.38 -9.38,9.39l-627.75 0c-70.99,0 -128.55,-57.57 -128.55,-128.56 0,-70.98 57.56,-128.55 128.55,-128.55l627.75 0c5.18,0 9.38,4.2 9.38,9.38 0,5.19 -4.2,9.39 -9.38,9.39l-627.75 0c-60.62,0 -109.79,49.16 -109.79,109.78 0,60.63 49.17,109.79 109.79,109.79l627.75 0c5.18,0 9.38,4.2 9.38,9.38l0 0z"/>
   <path class="fil2" d="M1338.38 691.55l-656.84 0c-1.04,0 -1.88,-0.84 -1.88,-1.87 0,-1.04 0.84,-1.88 1.88,-1.88l656.84 0c1.03,0 1.87,0.84 1.87,1.88 0,1.03 -0.84,1.87 -1.87,1.87l0 0z"/>
   <path class="fil2" d="M1338.38 736.59l-656.84 0c-1.04,0 -1.88,-0.84 -1.88,-1.87 0,-1.04 0.84,-1.88 1.88,-1.88l656.84 0c1.03,0 1.87,0.84 1.87,1.88 0,1.03 -0.84,1.87 -1.87,1.87l0 0z"/>
   <path class="fil2" d="M1338.38 781.63l-656.84 0c-1.04,0 -1.88,-0.84 -1.88,-1.87 0,-1.04 0.84,-1.88 1.88,-1.88l656.84 0c1.03,0 1.87,0.84 1.87,1.88 0,1.03 -0.84,1.87 -1.87,1.87l0 0z"/>
   <path class="fil2" d="M1338.38 826.67l-656.84 0c-1.04,0 -1.88,-0.84 -1.88,-1.87 0,-1.04 0.84,-1.88 1.88,-1.88l656.84 0c1.03,0 1.87,0.84 1.87,1.88 0,1.03 -0.84,1.87 -1.87,1.87l0 0z"/>
  </g>
  <g id="_3193443272608">
   <path class="fil7" d="M771.46 543.35l-238 0c-4.12,0 -7.47,-3.34 -7.47,-7.47l0 -180.71c0,-4.12 3.35,-7.47 7.47,-7.47l292.13 0c4.12,0 7.47,3.35 7.47,7.47l0 126.58c-0.03,34 -27.6,61.57 -61.6,61.6l0 0z"/>
   <path class="fil2" d="M771.46 544.03l-238 0c-4.5,-0.01 -8.14,-3.65 -8.15,-8.15l0 -180.71c0.01,-4.5 3.65,-8.14 8.15,-8.15l292.13 0c4.5,0.01 8.14,3.65 8.15,8.15l0 126.58c-0.03,34.37 -27.91,62.25 -62.28,62.28l0 0zm-238 -194.3c-3,0 -5.44,2.44 -5.44,5.44l0 180.71c0,3 2.44,5.44 5.44,5.44l238 0c32.88,-0.03 59.54,-26.69 59.57,-59.57l0 -126.58c0,-3 -2.44,-5.44 -5.44,-5.44l-292.13 0z"/>
   <path class="fil2" d="M767.84 408.73l-176.63 0c-3.38,0 -6.12,-2.74 -6.12,-6.12 0,-3.37 2.74,-6.11 6.12,-6.11l176.63 0c3.38,0.01 6.11,2.74 6.11,6.11 0,3.38 -2.73,6.11 -6.11,6.12l0 0z"/>
   <path class="fil2" d="M767.84 450.85l-176.63 0c-3.38,0 -6.12,-2.74 -6.12,-6.11 0,-3.38 2.74,-6.12 6.12,-6.12l176.63 0c3.38,0 6.12,2.74 6.12,6.12 0,3.37 -2.74,6.11 -6.12,6.11l0 0z"/>
   <path class="fil2" d="M767.84 494.17l-176.63 0c-3.38,0 -6.12,-2.73 -6.12,-6.11 0,-3.38 2.74,-6.11 6.12,-6.11l176.63 0c3.38,0 6.12,2.73 6.12,6.11 0,3.38 -2.74,6.11 -6.12,6.11l0 0z"/>
   <circle class="fil3" cx="823.4" cy="355.69" r="36.51"/>
   <path class="fil7" d="M818.42 374.69c0,0 0,0 0,0 -1.28,0 -2.49,-0.6 -3.25,-1.62l-9.96 -13.29c-0.53,-0.7 -0.82,-1.55 -0.82,-2.43 0,-2.24 1.82,-4.06 4.07,-4.06 1.27,0 2.48,0.6 3.24,1.62l6.52 8.69 16.74 -25.11c0.75,-1.13 2.02,-1.8 3.38,-1.8 2.24,0 4.06,1.81 4.06,4.06 0,0.8 -0.24,1.58 -0.68,2.25l-19.92 29.88c-0.74,1.1 -1.95,1.77 -3.27,1.81 -0.04,0 -0.08,0 -0.11,0z"/>
   <path class="fil7" d="M683.61 700.31l-237.99 0c-34,-0.03 -61.58,-27.6 -61.6,-61.61l-0.01 -126.57c0.01,-4.13 3.35,-7.47 7.48,-7.48l292.12 0c4.13,0.01 7.47,3.35 7.48,7.48l0 180.71c-0.01,4.12 -3.35,7.46 -7.47,7.47l-0.01 0z"/>
   <path class="fil2" d="M683.61 700.99l-237.99 0c-34.38,-0.03 -62.25,-27.91 -62.28,-62.29l0 -126.57c0,-4.5 3.65,-8.15 8.15,-8.15l292.12 0c4.5,0 8.15,3.65 8.15,8.15l0 180.71c0,4.5 -3.65,8.14 -8.15,8.15l0 0zm-292.13 -194.3c-3,0 -5.43,2.43 -5.43,5.44l0 126.58c0.03,32.88 26.69,59.54 59.57,59.57l237.99 0c3.01,0 5.44,-2.44 5.44,-5.44l0 -180.71c0,-3.01 -2.43,-5.44 -5.44,-5.44l-292.13 0z"/>
   <path class="fil2" d="M625.87 565.68l-176.64 0c-3.37,0.01 -6.11,-2.73 -6.11,-6.11 0,-3.37 2.74,-6.11 6.11,-6.11l176.64 0c3.37,0 6.11,2.74 6.11,6.11 0,3.38 -2.74,6.12 -6.11,6.12l0 -0.01z"/>
   <path class="fil2" d="M625.87 607.81l-176.64 0c-3.37,0 -6.11,-2.74 -6.11,-6.12 0,-3.37 2.74,-6.11 6.11,-6.11l176.64 0c3.37,0 6.11,2.74 6.11,6.11 0,3.38 -2.74,6.12 -6.11,6.12l0 0z"/>
   <path class="fil2" d="M625.87 651.13l-176.64 0c-3.37,0 -6.11,-2.74 -6.11,-6.11 0,-3.38 2.74,-6.12 6.11,-6.12l176.64 0c3.37,0 6.11,2.74 6.11,6.12 0,3.37 -2.74,6.11 -6.11,6.11l0 0z"/>
   <circle class="fil3" cx="683.94" cy="514.09" r="36.51"/>
   <path class="fil7" d="M678.96 533.1c0,0 0,0 0,0 -1.27,0 -2.48,-0.6 -3.24,-1.63l-9.97 -13.28c-0.52,-0.7 -0.81,-1.56 -0.81,-2.44 0,-2.24 1.82,-4.06 4.06,-4.06 1.28,0 2.49,0.61 3.25,1.63l6.52 8.69 16.74 -25.11c0.75,-1.13 2.02,-1.81 3.38,-1.81 2.24,0 4.06,1.82 4.06,4.06 0,0.8 -0.24,1.59 -0.68,2.26l-19.93 29.88c-0.73,1.1 -1.95,1.77 -3.26,1.81 -0.04,0 -0.08,0 -0.12,0z"/>
   <path class="fil7" d="M980.15 868.75l-333.01 0c-34,-0.03 -61.57,-27.6 -61.6,-61.6l0 -186.18c0,-5.31 4.31,-9.62 9.63,-9.63l384.98 0c5.32,0.01 9.63,4.31 9.63,9.63l0 238.15c0,5.32 -4.31,9.63 -9.63,9.63l0 0z"/>
   <path class="fil2" d="M980.15 869.43l-333.01 0c-34.37,-0.03 -62.25,-27.91 -62.28,-62.28l0 -186.18c0.01,-5.69 4.62,-10.3 10.31,-10.31l384.98 0c5.69,0.01 10.3,4.62 10.31,10.31l0 238.15c-0.01,5.69 -4.62,10.3 -10.31,10.31l0 0zm-384.98 -256.06c-4.2,0.01 -7.6,3.4 -7.6,7.6l0 186.18c0.03,32.88 26.69,59.54 59.57,59.57l333.01 0c4.2,0 7.6,-3.4 7.6,-7.6l0 -238.15c0,-4.19 -3.4,-7.59 -7.6,-7.6l-384.98 0z"/>
   <path class="fil2" d="M904.05 691.55l-232.78 0c0,0 -0.01,0 -0.01,0 -4.45,0 -8.06,-3.61 -8.06,-8.06 0,-4.44 3.61,-8.05 8.06,-8.05 0,0 0.01,0 0.01,0l232.78 0c0,0 0.01,0 0.01,0 4.45,0 8.06,3.61 8.06,8.05 0,4.45 -3.61,8.06 -8.06,8.06 0,0 -0.01,0 -0.01,0z"/>
   <path class="fil2" d="M904.05 747.06l-232.78 0c0,0 -0.01,0 -0.01,0 -4.45,0 -8.06,-3.61 -8.06,-8.06 0,-4.44 3.61,-8.05 8.06,-8.05 0,0 0.01,0 0.01,0l232.78 0c4.45,0 8.06,3.61 8.06,8.05 0,4.45 -3.61,8.06 -8.06,8.06l0 0z"/>
   <path class="fil2" d="M904.05 804.16l-232.78 0c-4.45,0 -8.06,-3.61 -8.06,-8.06 0,-4.45 3.61,-8.06 8.06,-8.06l232.78 0c0,0 0.01,0 0.01,0 4.45,0 8.06,3.61 8.06,8.06 0,4.45 -3.61,8.06 -8.06,8.06 0,0 -0.01,0 -0.01,0l0 0z"/>
   <g>
    <circle class="fil3" cx="944.1" cy="632.88" r="46.22"/>
    <path class="fil7" d="M937.8 656.94c0,0 0,0 0,0 -1.62,0 -3.14,-0.77 -4.11,-2.06l-12.61 -16.81c-0.67,-0.89 -1.03,-1.98 -1.03,-3.09 0,-2.84 2.3,-5.14 5.14,-5.14 1.62,0 3.14,0.76 4.11,2.06l8.25 11 21.19 -31.79c0.95,-1.42 2.56,-2.28 4.27,-2.28 2.84,0 5.15,2.3 5.15,5.14 0,1.01 -0.3,2 -0.86,2.85l-25.22 37.83c-0.93,1.38 -2.47,2.24 -4.14,2.28 -0.05,0 -0.09,0.01 -0.14,0.01z"/>
   </g>
  </g>
  <g id="_3193447016400">
   <path class="fil0" d="M759.22 436.29c6.32,10.54 17.71,17 29.99,17 8.44,0 16.59,-3.05 22.95,-8.59l107.77 61.81 -4.02 -64.43 -101.72 -48.82c-6.59,-6.64 -15.57,-10.37 -24.93,-10.37 -19.41,0 -35.15,15.74 -35.15,35.15 0,6.44 1.77,12.75 5.11,18.25l0 0z"/>
   <path class="fil1" d="M1071.21 683.89c-31.96,44.74 -30.82,119.6 -21.9,201.52l151.14 0 6.57 -15.33 8.76 15.33 142.38 0c0,0 -10.95,-208.09 -30.66,-214.66 -19.72,-6.57 -256.29,13.14 -256.29,13.14z"/>
   <circle class="fil0" cx="1200.45" cy="139.77" r="76.67"/>
   <path class="fil4" d="M1255.86 236.32l14.99 28.74 103.7 46.23 -27.26 263.78 -11.47 27.32 6.2 23.72 -14.94 17.51c15,13.57 16.9,27.78 8.74,42.48l-47.75 10.94c0,0 -265.52,23.61 -243.14,-17.53 24.45,-44.94 30.67,-177.68 -23.3,-248.61 -45.82,-60.22 -10.64,-138.35 -10.64,-138.35l108.69 -32.49 39.98 -23.74 96.2 0z"/>
   <path class="fil1" d="M1234.49 27.46c0.7,-1.47 2.18,-2.42 3.82,-2.42 0.08,0 0.16,0.01 0.25,0.01 -35.1,-2.1 -72.07,1.99 -101.44,21.33 -7.11,4.69 -13.82,10.28 -21.56,13.68 -0.83,0.37 -1.37,1.2 -1.37,2.12 0,0.71 0.33,1.39 0.9,1.83l0.85 0.67c0.56,0.44 0.89,1.11 0.89,1.83 0,1.03 -0.67,1.93 -1.65,2.23l0 0c-0.98,0.3 -1.65,1.21 -1.65,2.23 0,0.79 0.4,1.53 1.06,1.96l6.52 4.21c0.67,0.43 1.07,1.16 1.07,1.96 0,0.78 -0.39,1.52 -1.05,1.94 -0.55,0.34 -1.13,0.64 -1.73,0.88 -0.91,0.34 -1.51,1.21 -1.51,2.18 0,0.66 0.28,1.29 0.77,1.73 2.82,2.51 4.99,5.68 6.3,9.22 2.18,5.65 2.57,11.79 2.93,17.83 2.25,-8.71 11.76,-13.84 20.74,-14.36 8.98,-0.52 17.74,2.44 26.48,4.57 11.31,2.73 22.96,4.15 34.6,4.15 7.89,0 15.78,-0.67 23.56,-1.92 -6.57,13.18 -1.03,28.9 4.55,42.53l18.04 -7.73c24.78,-13.99 7.52,45.18 -1.74,53.31 18.91,6.56 68.43,-66.24 52.5,-93.85 -8.29,-14.36 -2.4,-32.89 -18.69,-46.51 -7.99,-8.4 -23.93,-4.67 -32.07,-11.65 -3.2,-2.75 1.68,-10.11 -2.72,-11.71 -1.46,-0.53 -18.41,-2.78 -18.65,-2.25z"/>
   <path class="fil4" d="M1104.63 267.48c-14.07,62.46 -50.15,208.29 -86.76,238.78 -2.32,2.19 -5.11,3.84 -8.14,4.81 -128.68,31.35 -169.91,-48.61 -169.91,-48.61 0,0 34.49,-16.81 35.36,-49.65l69.54 21.58 60.62 -136.42 8.92 -8.32 0.05 -0.05 90.32 -22.12z"/>
   <path class="fil0" d="M1378.98 844.23c6.85,-6.58 10.73,-15.69 10.73,-25.2 0,-11.19 -5.36,-21.7 -14.41,-28.28l36.08 -118.88 -61.9 18.36 -24.76 110.08c-3.53,5.6 -5.42,12.11 -5.42,18.74 0,19.41 15.75,35.15 35.15,35.15 9.16,0 17.97,-3.58 24.53,-9.97l0 0z"/>
   <path class="fil4" d="M1345.96 304.64l28.59 6.65c0,0 118.17,229.91 89.7,273.72 -28.48,43.81 -63.36,188.85 -63.36,188.85 0,0 -51.6,-10.25 -71.32,-36.54l36.11 -172.02 -37.24 -144.57 17.52 -116.09z"/>
   <path class="fil8" d="M803.56 646.06l1.03 -370.3c0.06,-15.59 12.71,-28.19 28.3,-28.19 0.01,0 0.03,0 0.04,0l279.66 0.77c15.59,0.06 28.19,12.72 28.19,28.31 0,0.01 0,0.03 0,0.04l-1.02 370.3c-0.06,15.58 -12.72,28.19 -28.3,28.19 -0.02,0 -0.04,0 -0.05,0l-279.66 -0.78c-15.58,-0.05 -28.19,-12.71 -28.19,-28.3 0,-0.01 0,-0.03 0,-0.04l0 0z"/>
   <path class="fil7" d="M825.32 534.27l0.66 -238.06c0.06,-14.6 11.91,-26.4 26.51,-26.4 0.01,0 0.03,0 0.04,0l240.34 0.67c14.6,0.05 26.41,11.9 26.41,26.5 0,0.01 0,0.03 0,0.04l-0.92 329.52c-0.05,14.59 -11.91,26.4 -26.5,26.4 -0.02,0 -0.04,0 -0.05,0l-148.88 -0.41c-65.03,-0.25 -117.61,-53.04 -117.61,-118.07 0,-0.05 0,-0.13 0,-0.18l0 -0.01z"/>
   <path class="fil3" d="M1065.33 374.38l-187.4 0c-6.21,0 -11.25,-5.04 -11.25,-11.25 0,-6.2 5.04,-11.24 11.25,-11.24l187.4 0c6.21,0 11.25,5.04 11.25,11.24 0,6.21 -5.04,11.25 -11.25,11.25z"/>
   <path class="fil3" d="M919.16 322.53l-41.23 0c-6.21,0 -11.25,-5.03 -11.25,-11.24 0,-6.21 5.04,-11.25 11.25,-11.25l41.23 0c6.21,0 11.24,5.04 11.24,11.25 0,6.21 -5.03,11.24 -11.24,11.24l0 0z"/>
   <path class="fil3" d="M1065.33 426.23l-187.4 0c-6.21,0 -11.25,-5.04 -11.25,-11.25 0,-6.21 5.04,-11.24 11.25,-11.24l187.4 0c6.21,0 11.25,5.03 11.25,11.24 0,6.21 -5.04,11.25 -11.25,11.25z"/>
   <path class="fil3" d="M1065.33 478.08l-187.4 0c-6.21,0 -11.25,-5.04 -11.25,-11.25 0,-6.21 5.04,-11.24 11.25,-11.24l187.4 0c6.21,0 11.25,5.03 11.25,11.24 0,6.21 -5.04,11.25 -11.25,11.25l0 0z"/>
   <circle class="fil3" cx="1050.17" cy="569.95" r="44.74"/>
   <path class="fil7" d="M1044.07 593.24c0,0 0,0 0,0 -1.57,0 -3.04,-0.74 -3.98,-1.99l-12.21 -16.28c-0.65,-0.86 -1,-1.91 -1,-2.99 0,-2.75 2.23,-4.97 4.98,-4.97 1.57,0 3.04,0.74 3.98,1.99l7.99 10.65 20.51 -30.77c0.92,-1.39 2.48,-2.23 4.15,-2.23 2.75,0 4.97,2.23 4.97,4.98 0,0.99 -0.29,1.95 -0.84,2.78l-24.41 36.61c-0.9,1.35 -2.39,2.17 -4.01,2.22 -0.04,0 -0.09,0 -0.13,0z"/>
   <circle class="fil6" cx="954.76" cy="140.12" r="21.24"/>
   <circle class="fil6" cx="877.3" cy="751.06" r="21.24"/>
   <circle class="fil6" cx="1365.81" cy="222.58" r="21.24"/>
  </g>
 </g>
</svg>
